<?xml version="1.0" encoding="utf-8"?>
<!-- Generator: Adobe Illustrator 21.1.0, SVG Export Plug-In . SVG Version: 6.00 Build 0)  -->
<svg version="1.1" id="Layer_1" xmlns="http://www.w3.org/2000/svg" xmlns:xlink="http://www.w3.org/1999/xlink" x="0px" y="0px"
	 viewBox="0 0 70 70" style="enable-background:new 0 0 70 70;" xml:space="preserve">
<style type="text/css">
	.st0{opacity:0.2;}
	.st1{fill:#2A753F;}
	.st2{fill:#359550;}
	.st3{fill:#A6E7AF;}
	.st4{opacity:0.27;fill:#231F20;enable-background:new    ;}
	.st5{enable-background:new    ;}
	.st6{fill:#FAAE19;}
	.st7{clip-path:url(#SVGID_2_);}
	.st8{fill:#F98E00;}
	.st9{clip-path:url(#SVGID_4_);}
	.st10{clip-path:url(#SVGID_6_);}
	.st11{fill:#94670F;}
	.st12{fill:#996B10;}
	.st13{fill:#949494;}
	.st14{fill:#999999;}
	.st15{clip-path:url(#SVGID_8_);enable-background:new    ;}
	.st16{fill:#FFB21A;}
	.st17{clip-path:url(#SVGID_10_);enable-background:new    ;}
	.st18{fill:#FFFFFF;}
	.st19{clip-path:url(#SVGID_12_);enable-background:new    ;}
	.st20{clip-path:url(#SVGID_14_);enable-background:new    ;}
	.st21{clip-path:url(#SVGID_16_);enable-background:new    ;}
	.st22{clip-path:url(#SVGID_18_);enable-background:new    ;}
	.st23{clip-path:url(#SVGID_20_);enable-background:new    ;}
	.st24{clip-path:url(#SVGID_22_);enable-background:new    ;}
	.st25{clip-path:url(#SVGID_24_);enable-background:new    ;}
	.st26{clip-path:url(#SVGID_26_);enable-background:new    ;}
	.st27{clip-path:url(#SVGID_28_);enable-background:new    ;}
	.st28{clip-path:url(#SVGID_30_);enable-background:new    ;}
	.st29{clip-path:url(#SVGID_32_);enable-background:new    ;}
	.st30{clip-path:url(#SVGID_34_);enable-background:new    ;}
	.st31{clip-path:url(#SVGID_36_);enable-background:new    ;}
	.st32{clip-path:url(#SVGID_38_);enable-background:new    ;}
	.st33{clip-path:url(#SVGID_40_);enable-background:new    ;}
	.st34{clip-path:url(#SVGID_42_);enable-background:new    ;}
	.st35{clip-path:url(#SVGID_44_);}
	.st36{fill:#FAFAFA;}
	.st37{clip-path:url(#SVGID_46_);enable-background:new    ;}
	.st38{clip-path:url(#SVGID_48_);enable-background:new    ;}
	.st39{clip-path:url(#SVGID_50_);enable-background:new    ;}
	.st40{clip-path:url(#SVGID_52_);enable-background:new    ;}
	.st41{clip-path:url(#SVGID_54_);enable-background:new    ;}
	.st42{clip-path:url(#SVGID_56_);enable-background:new    ;}
	.st43{clip-path:url(#SVGID_58_);enable-background:new    ;}
	.st44{clip-path:url(#SVGID_60_);enable-background:new    ;}
	.st45{clip-path:url(#SVGID_62_);enable-background:new    ;}
	.st46{clip-path:url(#SVGID_64_);enable-background:new    ;}
	.st47{clip-path:url(#SVGID_66_);enable-background:new    ;}
	.st48{clip-path:url(#SVGID_68_);enable-background:new    ;}
	.st49{clip-path:url(#SVGID_70_);enable-background:new    ;}
	.st50{clip-path:url(#SVGID_72_);enable-background:new    ;}
	.st51{clip-path:url(#SVGID_74_);enable-background:new    ;}
	.st52{clip-path:url(#SVGID_76_);enable-background:new    ;}
	.st53{clip-path:url(#SVGID_78_);enable-background:new    ;}
	.st54{clip-path:url(#SVGID_80_);enable-background:new    ;}
	.st55{clip-path:url(#SVGID_82_);}
</style>
<g>
	<g class="st0">
		<path d="M42.8,11.4c-0.4-0.2-1-0.2-1.4,0L1.2,34.8c-0.4,0.2-0.4,0.6,0,0.8l23,13.3c0.4,0.2,1,0.2,1.4,0l40.2-23.3
			c0.4-0.2,0.4-0.6,0-0.8L42.8,11.4z"/>
	</g>
	<path class="st1" d="M62.5,15.8l-5.3-3.1l-9.7-5.6L42.2,4l-5.3,3.1l-27,15.7l-5.3,3.1l0.6,0.3l0,0l-0.7-0.4v0.3l0.4,0.2l-0.3,0.2
		L5.2,27l0,0l-0.7-0.4v0.3l0.4,0.2l-0.3,0.2l0.6,0.3l0,0l-0.6-0.4v0.3l0.3,0.2L4.5,28v0.3l0.4,0.2l-0.3,0.2L5.2,29l0,0l-0.7-0.4V29
		l0.4,0.2l-0.3,0.2l0.6,0.3l0,0l-0.7-0.4v0.3l0.4,0.2l-0.3,0.2l0.6,0.4l0,0l-0.7-0.4v0.2L5,30.6l-0.3,0.2l-0.1-0.1V31l0.4,0.2
		l-0.3,0.2l0.6,0.3l0,0l-0.7-0.4v0.3l0.4,0.2l-0.3,0.2l0.6,0.4l0,0l-0.7-0.4v0.3l0.4,0.2l-0.3,0.2l0.6,0.4l0,0l-0.7-0.4v0.3l0.4,0.2
		l-0.3,0.2l0.6,0.3l0,0l-0.7-0.4v0.3L4.9,34l-0.3,0.2l0.6,0.3l0,0l-0.7-0.4v0.3l0.4,0.2l-0.3,0.2L9.9,38l-5.4-3.1v0.3l5.4,3.1
		l9.6,5.5l5.4,3.1l5.3-3.1l26.9-15.6l5.4-3.1v-0.3l-5.4,3.1L30.2,43.5l26.9-15.7l5.4-3l-0.3-0.2l0.3-0.2v-0.3l-0.6,0.3l0,0l0.6-0.3
		l-0.3-0.2l0.3-0.2v-0.3l-0.3-0.2l0.3-0.2v-0.3l-0.3-0.2l0.3-0.2V22l-0.4-0.2l0.4-0.2v-0.3l-0.3-0.2l0.3-0.2v-0.2l-0.4-0.2l0.4-0.2
		V20l-0.6,0.3l0,0l0.6-0.3l-0.3-0.2l0.3-0.2v-0.3l-0.6,0.3l0,0l0.6-0.3l-0.3-0.2l0.3-0.2v-0.3l-0.6,0.3l0,0l0.6-0.3l-0.3-0.2
		l0.3-0.2v-0.3l-0.3-0.2l0.3-0.2v-0.3l-0.6,0.3l0,0l0.6-0.3L62.2,17l0.3-0.2v-0.3l-0.3-0.2l0.3-0.2V15.8z M19.6,43.6
		C19.7,43.6,19.7,43.6,19.6,43.6l5.3,3L19.6,43.6z"/>
	<g>
		<g>
			<g>
				<path class="st2" d="M47.5,12.1c0.9,0.5,0.9,1.4,0,2c-0.9,0.5-2.4,0.5-3.4,0c-0.9-0.5-0.9-1.4,0-2S46.5,11.5,47.5,12.1z"/>
			</g>
			<g>
				<path class="st3" d="M37.6,19.5c1.1,0.6,1.2,1.6,0.1,2.5l1.2,0.7l-1.2,0.7l-1.1-0.7c-0.8,0.4-1.8,0.8-2.5,0.9l-1-1
					c0.8-0.1,1.7-0.4,2.5-0.8c0.7-0.4,0.9-0.8,0.4-1.1c-0.4-0.3-1.1-0.2-2.3,0.1c-1.7,0.5-3.1,0.6-4.3,0c-1-0.6-1.1-1.5-0.1-2.4
					l-1.1-0.6l1.2-0.7l1,0.6c0.8-0.4,1.5-0.6,2.1-0.8l1,1c-0.4,0.1-1.2,0.3-2.1,0.8c-0.8,0.4-0.7,0.8-0.3,1c0.4,0.2,1,0.1,2.4-0.2
					C35.3,18.8,36.5,18.9,37.6,19.5z"/>
			</g>
			<g>
				<path class="st2" d="M22.9,26.3c0.9,0.5,0.9,1.4,0,2c-0.9,0.5-2.4,0.5-3.4,0c-0.9-0.5-0.9-1.4,0-2S22,25.8,22.9,26.3z"/>
			</g>
			<g>
				<path class="st3" d="M56.1,12.8c-1.5,1.4-1.5,3.2,0,4.7L28.9,33.3c-2.5-0.9-5.6-0.9-8,0L11,27.6c1.5-1.4,1.5-3.2,0-4.7L38.1,7.1
					c2.5,0.9,5.6,0.9,8,0L56.1,12.8z M26.6,24.2c3.8,2.2,10,2.2,13.8,0c3.8-2.2,3.8-5.8,0-8s-10-2.2-13.8,0
					C22.8,18.4,22.8,22,26.6,24.2 M47.5,12.1c-0.9-0.5-2.5-0.5-3.4,0s-0.9,1.4,0,2c0.9,0.5,2.5,0.5,3.4,0
					C48.4,13.5,48.4,12.6,47.5,12.1 M19.5,28.3c0.9,0.5,2.5,0.5,3.4,0s0.9-1.4,0-2c-0.9-0.5-2.5-0.5-3.4,0S18.6,27.7,19.5,28.3"/>
			</g>
			<g>
				<path class="st2" d="M40.4,16.2c3.8,2.2,3.8,5.8,0,8s-10,2.2-13.8,0s-3.8-5.8,0-8S36.5,14,40.4,16.2z M37.7,23.3l1.2-0.7
					L37.7,22c1.1-0.9,1-1.9-0.1-2.5s-2.3-0.7-4.2-0.1c-1.4,0.4-2,0.5-2.4,0.2c-0.3-0.2-0.4-0.5,0.3-1c0.8-0.5,1.7-0.6,2.1-0.8l-1-1
					c-0.6,0.1-1.3,0.3-2.1,0.8l-1-0.6l-1.2,0.7l1.1,0.6c-1,0.9-0.9,1.8,0.1,2.4c1.1,0.7,2.6,0.5,4.3,0c1.2-0.3,1.8-0.4,2.3-0.1
					s0.3,0.7-0.4,1.1c-0.8,0.4-1.7,0.7-2.5,0.8l1,1c0.7-0.1,1.7-0.4,2.5-0.9L37.7,23.3"/>
			</g>
			<g>
				<path class="st2" d="M62.5,15.1L57.2,12c-0.1,0.1-0.2,0.1-0.3,0.2c-0.2,0.1-0.4,0.2-0.5,0.4c0.2-0.1,0.3-0.3,0.5-0.4
					c0.1-0.1,0.2-0.1,0.3-0.2l-9.7-5.6l-5.3-3.1l-5.3,3.1l0,0l-27,15.7l-5.3,3.1l5.3,3.1l0,0l9.7,5.6c0.4-0.2,0.8-0.4,1.3-0.6
					L11,27.6c1.5-1.4,1.5-3.2,0-4.7L38.1,7.1l0,0c2.5,0.9,5.6,0.9,8,0l0,0l9.9,5.7c-1.5,1.4-1.5,3.2,0,4.7L28.9,33.3
					c0.2,0.1,0.5,0.2,0.7,0.3s0.4,0.2,0.6,0.3l26.9-15.7l0,0L62.5,15.1z"/>
				<path class="st2" d="M20.9,33.3c-0.5,0.2-0.9,0.4-1.3,0.6l5.3,3.1l5.3-3.1c-0.2-0.1-0.4-0.2-0.6-0.3s-0.4-0.2-0.7-0.3
					C26.4,32.4,23.3,32.4,20.9,33.3z"/>
			</g>
		</g>
		<g>
			<polygon class="st1" points="4.5,25.2 4.5,25.5 9.9,28.6 9.9,28.3 			"/>
			<polygon class="st1" points="19.5,33.9 19.5,33.9 19.5,33.9 9.9,28.3 9.9,28.6 19.5,34.2 19.5,34.2 24.9,37.3 24.9,37 			"/>
		</g>
		<polygon class="st1" points="57.1,18.2 57.1,18.2 57.1,18.2 30.2,33.9 30.2,33.9 24.9,37 24.9,37.3 30.2,34.2 57.1,18.5 
			57.1,18.5 62.5,15.4 62.5,15.1 		"/>
	</g>
</g>
<g>
	<ellipse class="st4" cx="30.2" cy="57.9" rx="9.9" ry="5.1"/>
	<g>
		<g class="st5">
			<path class="st6" d="M36,49.3c-3.9-2.2-10.3-2.2-14.2,0c-4,2.3-3.9,5.9,0,8.2c0.6,0.3,1.2,0.6,1.8,0.8v0.6l1,0.6l0.8-0.4
				c1.2,0.7,3.1,0.7,4.4,0.1c2.3-0.1,4.5-0.7,6.2-1.7C40,55.3,39.9,51.6,36,49.3z"/>
			<g class="st5">
				<g>
					<defs>
						<path id="SVGID_1_" d="M39,53.5c0,1,0,2,0,3c0,1.5-1,3-2.9,4.1c-3.9,2.3-10.3,2.3-14.2,0c-2-1.1-3-2.6-3-4.1c0-1,0-2,0-3
							c0,1.5,1,3,3,4.1c3.9,2.3,10.3,2.3,14.2,0C38,56.4,39,54.9,39,53.5z"/>
					</defs>
					<clipPath id="SVGID_2_">
						<use xlink:href="#SVGID_1_"  style="overflow:visible;"/>
					</clipPath>
					<g class="st7">
						<path class="st8" d="M39,53.5v3c0,1.5-1,3-2.9,4.1c-3.9,2.3-10.3,2.3-14.2,0c-2-1.1-3-2.6-3-4.1v-3c0,1.5,1,3,3,4.1
							c3.9,2.3,10.3,2.3,14.2,0C38,56.4,39,54.9,39,53.5L39,53.5z"/>
					</g>
				</g>
			</g>
		</g>
	</g>
</g>
<g>
	<ellipse class="st4" cx="49" cy="45.2" rx="9.9" ry="5.1"/>
	<g>
		<g class="st5">
			<path class="st6" d="M54.8,36.6c-3.9-2.2-10.3-2.2-14.2,0c-4,2.3-3.9,5.9,0,8.2c0.6,0.3,1.2,0.6,1.8,0.8v0.6l1,0.6l0.8-0.4
				c1.2,0.7,3.1,0.7,4.4,0.1c2.3-0.1,4.5-0.7,6.2-1.7C58.8,42.6,58.7,38.9,54.8,36.6z"/>
			<g class="st5">
				<g>
					<defs>
						<path id="SVGID_3_" d="M57.8,40.8c0,1,0,2,0,3c0,1.5-1,3-2.9,4.1c-3.9,2.3-10.3,2.3-14.2,0c-2-1.1-3-2.6-3-4.1c0-1,0-2,0-3
							c0,1.5,1,3,3,4.1c3.9,2.3,10.3,2.3,14.2,0C56.8,43.7,57.8,42.2,57.8,40.8z"/>
					</defs>
					<clipPath id="SVGID_4_">
						<use xlink:href="#SVGID_3_"  style="overflow:visible;"/>
					</clipPath>
					<g class="st9">
						<path class="st8" d="M57.8,40.8v3c0,1.5-1,3-2.9,4.1c-3.9,2.3-10.3,2.3-14.2,0c-2-1.1-3-2.6-3-4.1v-3c0,1.5,1,3,3,4.1
							c3.9,2.3,10.3,2.3,14.2,0C56.8,43.7,57.8,42.2,57.8,40.8L57.8,40.8z"/>
					</g>
				</g>
			</g>
		</g>
	</g>
</g>
<g>
	<g>
		<g class="st5">
			<path class="st6" d="M54.8,32.8c-3.9-2.2-10.3-2.2-14.2,0c-4,2.3-3.9,5.9,0,8.2c0.6,0.3,1.2,0.6,1.8,0.8v0.6l1,0.6l0.8-0.4
				c1.2,0.7,3.1,0.7,4.4,0.1c2.3-0.1,4.5-0.7,6.2-1.7C58.8,38.8,58.7,35.1,54.8,32.8z"/>
			<g class="st5">
				<g>
					<defs>
						<path id="SVGID_5_" d="M57.8,37c0,1,0,2,0,3c0,1.5-1,3-2.9,4.1c-3.9,2.3-10.3,2.3-14.2,0c-2-1.1-3-2.6-3-4.1c0-1,0-2,0-3
							c0,1.5,1,3,3,4.1c3.9,2.3,10.3,2.3,14.2,0C56.8,39.9,57.8,38.4,57.8,37z"/>
					</defs>
					<clipPath id="SVGID_6_">
						<use xlink:href="#SVGID_5_"  style="overflow:visible;"/>
					</clipPath>
					<g class="st10">
						<path class="st8" d="M57.8,37v3c0,1.5-1,3-2.9,4.1c-3.9,2.3-10.3,2.3-14.2,0c-2-1.1-3-2.6-3-4.1v-3c0,1.5,1,3,3,4.1
							c3.9,2.3,10.3,2.3,14.2,0C56.8,39.9,57.8,38.4,57.8,37L57.8,37z"/>
					</g>
				</g>
			</g>
		</g>
	</g>
</g>
<g>
	<g>
		<g class="st5">
			<g>
				<polygon class="st11" points="33.2,46.9 33.2,50 32.4,50.4 32.4,47.4 				"/>
			</g>
			<g>
				<polygon class="st12" points="34.2,47.5 34.2,50.5 33.2,50 33.2,46.9 				"/>
			</g>
			<g>
				<polygon class="st13" points="34.2,47.5 34.2,50.5 33.5,51 33.5,48 				"/>
			</g>
			<g>
				<polygon class="st12" points="33.7,48.1 33.7,51.1 33.5,51 33.5,48 				"/>
			</g>
			<g>
				<polygon class="st14" points="32.7,48.7 32.7,51.7 32.4,51.6 32.4,48.6 				"/>
			</g>
			<g class="st5">
				<g>
					<defs>
						<path id="SVGID_7_" d="M26.9,51.7v-3c0-0.5,0.3-1,0.9-1.3c1.3-0.7,3.3-0.7,4.6,0v3c-1.3-0.7-3.3-0.7-4.6,0
							C27.2,50.8,26.9,51.2,26.9,51.7z"/>
					</defs>
					<clipPath id="SVGID_8_">
						<use xlink:href="#SVGID_7_"  style="overflow:visible;"/>
					</clipPath>
					<g class="st15">
						<path class="st16" d="M32.4,47.4v3c-1.3-0.7-3.3-0.7-4.6,0c-0.6,0.3-0.9,0.8-0.9,1.3v-3c0-0.5,0.3-1,0.9-1.3
							C29.1,46.7,31.2,46.7,32.4,47.4L32.4,47.4z"/>
					</g>
				</g>
			</g>
			<g class="st5">
				<g>
					<defs>
						<path id="SVGID_9_" d="M28.4,51.7v-3c0-0.3,0.2-0.5,0.5-0.7c0.7-0.4,1.8-0.4,2.5,0v3c-0.7-0.4-1.8-0.4-2.5,0
							C28.5,51.2,28.4,51.4,28.4,51.7z"/>
					</defs>
					<clipPath id="SVGID_10_">
						<use xlink:href="#SVGID_9_"  style="overflow:visible;"/>
					</clipPath>
					<g class="st17">
						<path class="st18" d="M31.4,48v3c-0.7-0.4-1.8-0.4-2.5,0c-0.3,0.2-0.5,0.4-0.5,0.7v-3c0-0.3,0.2-0.5,0.5-0.7
							C29.6,47.6,30.7,47.6,31.4,48L31.4,48z"/>
					</g>
				</g>
			</g>
			<g class="st5">
				<g>
					<defs>
						<path id="SVGID_11_" d="M34.6,49.4v3c0-0.5-0.3-0.9-0.9-1.2v-3C34.3,48.5,34.6,48.9,34.6,49.4z"/>
					</defs>
					<clipPath id="SVGID_12_">
						<use xlink:href="#SVGID_11_"  style="overflow:visible;"/>
					</clipPath>
					<g class="st19">
						<path class="st16" d="M34.6,49.4v3c0-0.5-0.3-0.9-0.9-1.2v-3C34.3,48.5,34.6,48.9,34.6,49.4L34.6,49.4z"/>
					</g>
				</g>
			</g>
			<g class="st5">
				<g>
					<defs>
						<path id="SVGID_13_" d="M33.1,49.4v3c0-0.2-0.2-0.5-0.5-0.7v-3C33,48.9,33.2,49.1,33.1,49.4z"/>
					</defs>
					<clipPath id="SVGID_14_">
						<use xlink:href="#SVGID_13_"  style="overflow:visible;"/>
					</clipPath>
					<g class="st20">
						<path class="st18" d="M33.1,49.4v3c0-0.2-0.2-0.5-0.5-0.7v-3C33,48.9,33.2,49.1,33.1,49.4L33.1,49.4z"/>
					</g>
				</g>
			</g>
			<g>
				<polygon class="st11" points="31.4,48 31.4,51 28.9,52.5 28.9,49.4 				"/>
			</g>
			<g>
				<path class="st6" d="M31.4,48l-2.5,1.5l0,0c-0.3-0.2-0.5-0.4-0.5-0.7s0.2-0.5,0.5-0.7C29.6,47.6,30.7,47.6,31.4,48z"/>
			</g>
			<g class="st5">
				<g>
					<defs>
						<path id="SVGID_15_" d="M28.4,51.7v-3l0,0c0,0.3,0.2,0.5,0.5,0.7l0,0v3l0,0C28.5,52.3,28.4,52,28.4,51.7L28.4,51.7z"/>
					</defs>
					<clipPath id="SVGID_16_">
						<use xlink:href="#SVGID_15_"  style="overflow:visible;"/>
					</clipPath>
					<g class="st21">
						<path class="st16" d="M28.9,49.4v3l0,0c-0.3-0.2-0.5-0.4-0.5-0.7l0,0v-3l0,0C28.4,49,28.6,49.2,28.9,49.4L28.9,49.4L28.9,49.4
							z"/>
					</g>
				</g>
			</g>
			<g class="st5">
				<g>
					<defs>
						<path id="SVGID_17_" d="M33.1,49.4v3c0,0.2-0.2,0.5-0.5,0.6v-3C33,49.8,33.1,49.6,33.1,49.4z"/>
					</defs>
					<clipPath id="SVGID_18_">
						<use xlink:href="#SVGID_17_"  style="overflow:visible;"/>
					</clipPath>
					<g class="st22">
						<path class="st16" d="M33.1,49.4v3c0,0.2-0.2,0.5-0.5,0.6v-3C33,49.8,33.1,49.6,33.1,49.4L33.1,49.4z"/>
					</g>
				</g>
			</g>
			<g>
				<polygon class="st13" points="32.4,48.6 32.4,51.6 29.9,53 29.9,50 				"/>
			</g>
			<g class="st5">
				<g>
					<defs>
						<path id="SVGID_19_" d="M26.9,51.7v-3l0,0c0,0.5,0.3,1,0.9,1.3l0,0v3l0,0C27.2,52.7,26.9,52.2,26.9,51.7L26.9,51.7z"/>
					</defs>
					<clipPath id="SVGID_20_">
						<use xlink:href="#SVGID_19_"  style="overflow:visible;"/>
					</clipPath>
					<g class="st23">
						<path class="st18" d="M27.9,50v3l0,0c-0.6-0.3-0.9-0.8-0.9-1.3l0,0v-3l0,0C26.9,49.2,27.3,49.7,27.9,50L27.9,50L27.9,50z"/>
					</g>
				</g>
			</g>
			<g>
				<polygon class="st12" points="25.2,50.1 25.2,53.1 24.2,52.5 24.2,49.5 				"/>
			</g>
			<g>
				<polygon class="st12" points="30.2,50.2 30.2,53.2 29.9,53 29.9,50 				"/>
			</g>
			<g>
				<polygon class="st14" points="33.7,50.6 33.7,53.6 32.7,53 32.7,50 				"/>
			</g>
			<g class="st5">
				<g>
					<defs>
						<path id="SVGID_21_" d="M34.6,49.4v3c0,0.4-0.3,0.9-0.9,1.2v-3C34.3,50.2,34.6,49.8,34.6,49.4z"/>
					</defs>
					<clipPath id="SVGID_22_">
						<use xlink:href="#SVGID_21_"  style="overflow:visible;"/>
					</clipPath>
					<g class="st24">
						<path class="st18" d="M34.6,49.4v3c0,0.4-0.3,0.9-0.9,1.2v-3C34.3,50.2,34.6,49.8,34.6,49.4L34.6,49.4z"/>
					</g>
				</g>
			</g>
			<g class="st5">
				<g>
					<defs>
						<path id="SVGID_23_" d="M23.3,53.8v-3c0-0.4,0.3-0.9,0.9-1.2v3C23.6,52.9,23.3,53.3,23.3,53.8z"/>
					</defs>
					<clipPath id="SVGID_24_">
						<use xlink:href="#SVGID_23_"  style="overflow:visible;"/>
					</clipPath>
					<g class="st25">
						<path class="st16" d="M24.2,49.5v3c-0.6,0.3-0.9,0.8-0.9,1.2v-3C23.3,50.3,23.6,49.9,24.2,49.5L24.2,49.5z"/>
					</g>
				</g>
			</g>
			<g class="st5">
				<g>
					<defs>
						<path id="SVGID_25_" d="M24.7,53.8v-3c0-0.2,0.2-0.5,0.5-0.6v3C24.9,53.3,24.7,53.5,24.7,53.8z"/>
					</defs>
					<clipPath id="SVGID_26_">
						<use xlink:href="#SVGID_25_"  style="overflow:visible;"/>
					</clipPath>
					<g class="st26">
						<path class="st18" d="M25.2,50.1v3c-0.3,0.2-0.5,0.4-0.5,0.6v-3C24.7,50.5,24.9,50.3,25.2,50.1L25.2,50.1z"/>
					</g>
				</g>
			</g>
			<g>
				<polygon class="st14" points="29.2,50.8 29.2,53.8 28.9,53.6 28.9,50.6 				"/>
			</g>
			<g class="st5">
				<g>
					<defs>
						<path id="SVGID_27_" d="M31.1,51.4v3l0,0c0-0.5-0.3-0.9-0.9-1.2v-3C30.8,50.5,31.1,50.9,31.1,51.4L31.1,51.4z"/>
					</defs>
					<clipPath id="SVGID_28_">
						<use xlink:href="#SVGID_27_"  style="overflow:visible;"/>
					</clipPath>
					<g class="st27">
						<path class="st16" d="M31.1,51.4v3l0,0c0-0.5-0.3-0.9-0.9-1.2v-3C30.8,50.5,31.1,50.9,31.1,51.4L31.1,51.4L31.1,51.4z"/>
					</g>
				</g>
			</g>
			<g class="st5">
				<g>
					<defs>
						<path id="SVGID_29_" d="M29.7,51.4v3l0,0c0-0.2-0.1-0.4-0.4-0.6l0,0v-3l0,0C29.5,51,29.7,51.2,29.7,51.4L29.7,51.4z"/>
					</defs>
					<clipPath id="SVGID_30_">
						<use xlink:href="#SVGID_29_"  style="overflow:visible;"/>
					</clipPath>
					<g class="st28">
						<path class="st18" d="M29.7,51.4v3l0,0c0-0.2-0.1-0.4-0.4-0.6l0,0v-3l0,0C29.5,51,29.7,51.2,29.7,51.4L29.7,51.4L29.7,51.4z"
							/>
					</g>
				</g>
			</g>
			<g class="st5">
				<g>
					<defs>
						<path id="SVGID_31_" d="M24.7,53.8v-3c0,0.2,0.2,0.5,0.5,0.6v3C24.9,54.2,24.7,54,24.7,53.8z"/>
					</defs>
					<clipPath id="SVGID_32_">
						<use xlink:href="#SVGID_31_"  style="overflow:visible;"/>
					</clipPath>
					<g class="st29">
						<path class="st16" d="M25.2,51.4v3c-0.3-0.2-0.5-0.4-0.5-0.7v-3C24.7,51,24.9,51.2,25.2,51.4L25.2,51.4z"/>
					</g>
				</g>
			</g>
			<g>
				<polygon class="st11" points="27.9,50 27.9,53 25.4,54.5 25.4,51.5 				"/>
			</g>
			<g>
				<polygon class="st12" points="25.4,51.5 25.4,54.5 25.2,54.4 25.2,51.4 				"/>
			</g>
			<g class="st5">
				<g>
					<defs>
						<path id="SVGID_33_" d="M29.7,51.4v3c0,0.2-0.1,0.4-0.4,0.6v-3C29.5,51.8,29.7,51.6,29.7,51.4z"/>
					</defs>
					<clipPath id="SVGID_34_">
						<use xlink:href="#SVGID_33_"  style="overflow:visible;"/>
					</clipPath>
					<g class="st30">
						<path class="st16" d="M29.7,51.4v3c0,0.2-0.1,0.4-0.4,0.6v-3C29.5,51.8,29.7,51.6,29.7,51.4L29.7,51.4z"/>
					</g>
				</g>
			</g>
			<g class="st5">
				<g>
					<defs>
						<path id="SVGID_35_" d="M23.3,53.8v-3c0,0.5,0.3,0.9,0.9,1.2v3C23.6,54.7,23.3,54.2,23.3,53.8z"/>
					</defs>
					<clipPath id="SVGID_36_">
						<use xlink:href="#SVGID_35_"  style="overflow:visible;"/>
					</clipPath>
					<g class="st31">
						<path class="st18" d="M24.2,52v3c-0.6-0.3-0.9-0.8-0.9-1.2v-3C23.3,51.2,23.6,51.7,24.2,52L24.2,52z"/>
					</g>
				</g>
			</g>
			<g>
				<polygon class="st13" points="28.9,50.6 28.9,53.6 26.4,55.1 26.4,52.1 				"/>
			</g>
			<g>
				<polygon class="st14" points="24.3,52.1 24.3,55.1 24.2,55 24.2,52 				"/>
			</g>
			<g>
				<polygon class="st11" points="29.3,52 29.2,55 29,55.1 29,52.1 				"/>
			</g>
			<g class="st5">
				<g>
					<defs>
						<path id="SVGID_37_" d="M29,52.1v3c-0.7,0.4-1.8,0.4-2.6,0v-3C27.2,52.5,28.3,52.5,29,52.1z"/>
					</defs>
					<clipPath id="SVGID_38_">
						<use xlink:href="#SVGID_37_"  style="overflow:visible;"/>
					</clipPath>
					<g class="st32">
						<path class="st16" d="M29,52.1v3c-0.7,0.4-1.8,0.4-2.6,0v-3C27.2,52.5,28.3,52.5,29,52.1L29,52.1z"/>
					</g>
				</g>
			</g>
			<g>
				<path class="st6" d="M29.3,50.8c0.3,0.2,0.4,0.4,0.4,0.6c0,0.2-0.1,0.4-0.4,0.6L29,52.1c-0.7,0.4-1.8,0.4-2.6,0h-0.1l2.5-1.5
					L29.3,50.8C29.2,50.8,29.3,50.8,29.3,50.8z"/>
			</g>
			<g>
				<polygon class="st11" points="24.3,52.1 24.3,55.1 23.6,55.5 23.6,52.5 				"/>
			</g>
			<g class="st5">
				<g>
					<defs>
						<path id="SVGID_39_" d="M31.1,51.4v3c0,0.4-0.3,0.9-0.8,1.2v-3C30.8,52.3,31.1,51.9,31.1,51.4z"/>
					</defs>
					<clipPath id="SVGID_40_">
						<use xlink:href="#SVGID_39_"  style="overflow:visible;"/>
					</clipPath>
					<g class="st33">
						<path class="st18" d="M31.1,51.4v3c0,0.4-0.3,0.9-0.8,1.2v-3C30.8,52.3,31.1,51.9,31.1,51.4L31.1,51.4z"/>
					</g>
				</g>
			</g>
			<g>
				<polygon class="st13" points="30.3,52.6 30.3,55.6 30,55.7 30,52.7 				"/>
			</g>
			<g>
				<polygon class="st14" points="25.4,52.7 25.4,55.7 25.4,55.7 				"/>
			</g>
			<g>
				<polygon class="st14" points="24.6,53.1 24.6,56.1 23.6,55.5 23.6,52.5 				"/>
			</g>
			<g>
				<polygon class="st13" points="25.4,52.7 25.4,55.7 24.6,56.1 24.6,53.1 				"/>
			</g>
			<g class="st5">
				<g>
					<defs>
						<path id="SVGID_41_" d="M30,52.7v3c-1.3,0.7-3.3,0.7-4.6,0v-3C26.7,53.5,28.8,53.5,30,52.7z"/>
					</defs>
					<clipPath id="SVGID_42_">
						<use xlink:href="#SVGID_41_"  style="overflow:visible;"/>
					</clipPath>
					<g class="st34">
						<path class="st18" d="M30,52.7v3c-1.3,0.7-3.3,0.7-4.6,0v-3C26.7,53.5,28.8,53.5,30,52.7L30,52.7z"/>
					</g>
				</g>
			</g>
			<g class="st5">
				<g>
					<defs>
						<path id="SVGID_43_" d="M39,50.1c0,1,0,2,0,3c0,1.5-1,3-2.9,4.1c-3.9,2.3-10.3,2.3-14.2,0c-2-1.1-3-2.6-3-4.1c0-1,0-2,0-3
							c0,1.5,1,3,3,4.1c3.9,2.3,10.3,2.3,14.2,0C38,53,39,51.6,39,50.1z"/>
					</defs>
					<clipPath id="SVGID_44_">
						<use xlink:href="#SVGID_43_"  style="overflow:visible;"/>
					</clipPath>
					<g class="st35">
						<path class="st8" d="M39,50.1v3c0,1.5-1,3-2.9,4.1c-3.9,2.3-10.3,2.3-14.2,0c-2-1.1-3-2.6-3-4.1v-3c0,1.5,1,3,3,4.1
							c3.9,2.3,10.3,2.3,14.2,0C38,53,39,51.6,39,50.1L39,50.1z"/>
					</g>
				</g>
			</g>
			<g>
				<path class="st6" d="M36,45.9c3.9,2.3,4,6,0,8.2c-3.9,2.3-10.3,2.3-14.2,0s-4-5.9,0-8.2C25.7,43.7,32.1,43.7,36,45.9z
					 M30.2,50.2L29.9,50l2.5-1.5l0.2,0.1c0.6,0.4,0.6,0.9,0,1.3l1,0.6c1.2-0.7,1.2-1.8,0-2.5l-0.1,0l0.8-0.4l-1-0.6l-0.8,0.4
					c-1.3-0.7-3.3-0.7-4.6,0c-0.6,0.4-0.9,0.8-0.9,1.3s0.3,1,0.9,1.3l0,0l-2.5,1.5l-0.2-0.1c-0.6-0.4-0.6-0.9,0-1.3l-1-0.6
					c-1.2,0.7-1.2,1.8,0,2.5l0.2,0.1l-0.8,0.4l1,0.6l0.8-0.4h0.1c1.3,0.7,3.3,0.7,4.6,0l0.2-0.1c0.5-0.3,0.8-0.7,0.8-1.2
					S30.8,50.5,30.2,50.2L30.2,50.2z"/>
			</g>
			<g>
				<path class="st36" d="M30.2,50.2c0.6,0.3,0.9,0.7,0.9,1.2s-0.3,0.9-0.8,1.2L30,52.7c-1.3,0.7-3.3,0.7-4.6,0h-0.1l-0.8,0.4
					l-1-0.6l0.8-0.4L24.2,52c-1.2-0.7-1.2-1.8,0-2.5l1,0.6c-0.6,0.4-0.6,0.9,0,1.3l0.2,0.1l2.5-1.5l0,0c-0.6-0.3-0.9-0.8-0.9-1.3
					s0.3-1,0.9-1.3c1.3-0.7,3.3-0.7,4.6,0l0.8-0.4l1,0.6L33.5,48l0.2,0.1c1.2,0.7,1.2,1.8,0,2.5l-1-0.6c0.6-0.4,0.6-0.9,0-1.3
					l-0.2-0.1L29.9,50L30.2,50.2z M29,52.1l0.2-0.1c0.3-0.2,0.4-0.4,0.4-0.6c0-0.2-0.1-0.4-0.4-0.6l0,0l-0.3-0.2l-2.5,1.5h0.1
					C27.2,52.5,28.3,52.5,29,52.1L29,52.1z M28.9,49.4l2.5-1.5c-0.7-0.4-1.8-0.4-2.5,0c-0.3,0.2-0.5,0.5-0.5,0.7
					C28.4,49,28.6,49.2,28.9,49.4L28.9,49.4L28.9,49.4z"/>
			</g>
		</g>
	</g>
</g>
<g>
	<g>
		<g class="st5">
			<g>
				<polygon class="st11" points="52,29.8 52,32.9 51.3,33.3 51.3,30.3 				"/>
			</g>
			<g>
				<polygon class="st12" points="53.1,30.4 53.1,33.4 52,32.9 52,29.8 				"/>
			</g>
			<g>
				<polygon class="st13" points="53.1,30.4 53.1,33.4 52.3,33.9 52.3,30.9 				"/>
			</g>
			<g>
				<polygon class="st12" points="52.5,31 52.5,34 52.3,33.9 52.3,30.9 				"/>
			</g>
			<g>
				<polygon class="st14" points="51.5,31.6 51.5,34.6 51.3,34.5 51.3,31.5 				"/>
			</g>
			<g class="st5">
				<g>
					<defs>
						<path id="SVGID_45_" d="M45.7,34.6v-3c0-0.5,0.3-1,0.9-1.3c1.3-0.7,3.3-0.7,4.6,0v3c-1.3-0.7-3.3-0.7-4.6,0
							C46.1,33.7,45.7,34.1,45.7,34.6z"/>
					</defs>
					<clipPath id="SVGID_46_">
						<use xlink:href="#SVGID_45_"  style="overflow:visible;"/>
					</clipPath>
					<g class="st37">
						<path class="st16" d="M51.3,30.3v3c-1.3-0.7-3.3-0.7-4.6,0c-0.6,0.3-0.9,0.8-0.9,1.3v-3c0-0.5,0.3-1,0.9-1.3
							C47.9,29.6,50,29.6,51.3,30.3L51.3,30.3z"/>
					</g>
				</g>
			</g>
			<g class="st5">
				<g>
					<defs>
						<path id="SVGID_47_" d="M47.2,34.6v-3c0-0.3,0.2-0.5,0.5-0.7c0.7-0.4,1.8-0.4,2.5,0v3c-0.7-0.4-1.8-0.4-2.5,0
							C47.4,34.1,47.2,34.3,47.2,34.6z"/>
					</defs>
					<clipPath id="SVGID_48_">
						<use xlink:href="#SVGID_47_"  style="overflow:visible;"/>
					</clipPath>
					<g class="st38">
						<path class="st18" d="M50.3,30.9v3c-0.7-0.4-1.8-0.4-2.5,0c-0.3,0.2-0.5,0.4-0.5,0.7v-3c0-0.3,0.2-0.5,0.5-0.7
							C48.4,30.5,49.5,30.5,50.3,30.9L50.3,30.9z"/>
					</g>
				</g>
			</g>
			<g class="st5">
				<g>
					<defs>
						<path id="SVGID_49_" d="M53.4,32.3v3c0-0.5-0.3-0.9-0.9-1.2v-3C53.1,31.4,53.4,31.8,53.4,32.3z"/>
					</defs>
					<clipPath id="SVGID_50_">
						<use xlink:href="#SVGID_49_"  style="overflow:visible;"/>
					</clipPath>
					<g class="st39">
						<path class="st16" d="M53.4,32.3v3c0-0.5-0.3-0.9-0.9-1.2v-3C53.1,31.4,53.4,31.8,53.4,32.3L53.4,32.3z"/>
					</g>
				</g>
			</g>
			<g class="st5">
				<g>
					<defs>
						<path id="SVGID_51_" d="M52,32.3v3c0-0.2-0.2-0.5-0.5-0.7v-3C51.8,31.8,52,32,52,32.3z"/>
					</defs>
					<clipPath id="SVGID_52_">
						<use xlink:href="#SVGID_51_"  style="overflow:visible;"/>
					</clipPath>
					<g class="st40">
						<path class="st18" d="M52,32.3v3c0-0.2-0.2-0.5-0.5-0.7v-3C51.8,31.8,52,32,52,32.3L52,32.3z"/>
					</g>
				</g>
			</g>
			<g>
				<polygon class="st11" points="50.3,30.9 50.2,33.9 47.7,35.4 47.7,32.3 				"/>
			</g>
			<g>
				<path class="st6" d="M50.3,30.9l-2.5,1.5l0,0c-0.3-0.2-0.5-0.4-0.5-0.7c0-0.3,0.2-0.5,0.5-0.7C48.4,30.5,49.5,30.5,50.3,30.9z"
					/>
			</g>
			<g class="st5">
				<g>
					<defs>
						<path id="SVGID_53_" d="M47.2,34.6v-3l0,0c0,0.3,0.2,0.5,0.5,0.7l0,0v3l0,0C47.4,35.2,47.2,34.9,47.2,34.6L47.2,34.6z"/>
					</defs>
					<clipPath id="SVGID_54_">
						<use xlink:href="#SVGID_53_"  style="overflow:visible;"/>
					</clipPath>
					<g class="st41">
						<path class="st16" d="M47.7,32.3v3l0,0c-0.3-0.2-0.5-0.4-0.5-0.7l0,0v-3l0,0C47.2,31.9,47.4,32.1,47.7,32.3L47.7,32.3
							L47.7,32.3z"/>
					</g>
				</g>
			</g>
			<g class="st5">
				<g>
					<defs>
						<path id="SVGID_55_" d="M52,32.3v3c0,0.2-0.2,0.5-0.5,0.6v-3C51.8,32.7,52,32.5,52,32.3z"/>
					</defs>
					<clipPath id="SVGID_56_">
						<use xlink:href="#SVGID_55_"  style="overflow:visible;"/>
					</clipPath>
					<g class="st42">
						<path class="st16" d="M52,32.3v3c0,0.2-0.2,0.5-0.5,0.6v-3C51.8,32.7,52,32.5,52,32.3L52,32.3z"/>
					</g>
				</g>
			</g>
			<g>
				<polygon class="st13" points="51.3,31.5 51.3,34.5 48.8,35.9 48.8,32.9 				"/>
			</g>
			<g class="st5">
				<g>
					<defs>
						<path id="SVGID_57_" d="M45.7,34.6v-3l0,0c0,0.5,0.3,1,0.9,1.3l0,0v3l0,0C46.1,35.6,45.7,35.1,45.7,34.6L45.7,34.6z"/>
					</defs>
					<clipPath id="SVGID_58_">
						<use xlink:href="#SVGID_57_"  style="overflow:visible;"/>
					</clipPath>
					<g class="st43">
						<path class="st18" d="M46.7,32.9v3l0,0c-0.6-0.3-0.9-0.8-0.9-1.3l0,0v-3l0,0C45.8,32.1,46.1,32.6,46.7,32.9L46.7,32.9
							L46.7,32.9z"/>
					</g>
				</g>
			</g>
			<g>
				<polygon class="st12" points="44,33 44,36 43,35.4 43,32.4 				"/>
			</g>
			<g>
				<polygon class="st12" points="49.1,33.1 49.1,36.1 48.8,35.9 48.8,32.9 				"/>
			</g>
			<g>
				<polygon class="st14" points="52.6,33.5 52.5,36.5 51.5,35.9 51.5,32.9 				"/>
			</g>
			<g class="st5">
				<g>
					<defs>
						<path id="SVGID_59_" d="M53.4,32.3v3c0,0.4-0.3,0.9-0.9,1.2v-3C53.1,33.2,53.4,32.7,53.4,32.3z"/>
					</defs>
					<clipPath id="SVGID_60_">
						<use xlink:href="#SVGID_59_"  style="overflow:visible;"/>
					</clipPath>
					<g class="st44">
						<path class="st18" d="M53.4,32.3v3c0,0.4-0.3,0.9-0.9,1.2v-3C53.1,33.2,53.4,32.7,53.4,32.3L53.4,32.3z"/>
					</g>
				</g>
			</g>
			<g class="st5">
				<g>
					<defs>
						<path id="SVGID_61_" d="M42.1,36.7v-3c0-0.4,0.3-0.9,0.9-1.2v3C42.4,35.8,42.1,36.2,42.1,36.7z"/>
					</defs>
					<clipPath id="SVGID_62_">
						<use xlink:href="#SVGID_61_"  style="overflow:visible;"/>
					</clipPath>
					<g class="st45">
						<path class="st16" d="M43,32.4v3c-0.6,0.3-0.9,0.8-0.9,1.2v-3C42.1,33.2,42.4,32.8,43,32.4L43,32.4z"/>
					</g>
				</g>
			</g>
			<g class="st5">
				<g>
					<defs>
						<path id="SVGID_63_" d="M43.6,36.7v-3c0-0.2,0.2-0.5,0.5-0.6v3C43.7,36.2,43.6,36.4,43.6,36.7z"/>
					</defs>
					<clipPath id="SVGID_64_">
						<use xlink:href="#SVGID_63_"  style="overflow:visible;"/>
					</clipPath>
					<g class="st46">
						<path class="st18" d="M44,33v3c-0.3,0.2-0.5,0.4-0.5,0.6v-3C43.6,33.4,43.7,33.2,44,33L44,33z"/>
					</g>
				</g>
			</g>
			<g>
				<polygon class="st14" points="48.1,33.7 48.1,36.7 47.7,36.5 47.7,33.5 				"/>
			</g>
			<g class="st5">
				<g>
					<defs>
						<path id="SVGID_65_" d="M50,34.3v3l0,0c0-0.5-0.3-0.9-0.9-1.2v-3C49.6,33.4,49.9,33.8,50,34.3L50,34.3z"/>
					</defs>
					<clipPath id="SVGID_66_">
						<use xlink:href="#SVGID_65_"  style="overflow:visible;"/>
					</clipPath>
					<g class="st47">
						<path class="st16" d="M50,34.3v3l0,0c0-0.5-0.3-0.9-0.9-1.2v-3C49.6,33.4,49.9,33.8,50,34.3L50,34.3L50,34.3z"/>
					</g>
				</g>
			</g>
			<g class="st5">
				<g>
					<defs>
						<path id="SVGID_67_" d="M48.5,34.3v3l0,0c0-0.2-0.1-0.4-0.4-0.6l0,0v-3l0,0C48.4,33.9,48.5,34.1,48.5,34.3L48.5,34.3z"/>
					</defs>
					<clipPath id="SVGID_68_">
						<use xlink:href="#SVGID_67_"  style="overflow:visible;"/>
					</clipPath>
					<g class="st48">
						<path class="st18" d="M48.5,34.3v3l0,0c0-0.2-0.1-0.4-0.4-0.6l0,0v-3l0,0C48.4,33.9,48.5,34.1,48.5,34.3L48.5,34.3L48.5,34.3z
							"/>
					</g>
				</g>
			</g>
			<g class="st5">
				<g>
					<defs>
						<path id="SVGID_69_" d="M43.6,36.7v-3c0,0.2,0.2,0.5,0.5,0.6v3C43.7,37.1,43.6,36.9,43.6,36.7z"/>
					</defs>
					<clipPath id="SVGID_70_">
						<use xlink:href="#SVGID_69_"  style="overflow:visible;"/>
					</clipPath>
					<g class="st49">
						<path class="st16" d="M44,34.3v3c-0.3-0.2-0.5-0.4-0.5-0.7v-3C43.6,33.9,43.7,34.1,44,34.3L44,34.3z"/>
					</g>
				</g>
			</g>
			<g>
				<polygon class="st11" points="46.7,32.9 46.7,36 44.2,37.4 44.2,34.4 				"/>
			</g>
			<g>
				<polygon class="st12" points="44.2,34.4 44.2,37.4 44,37.3 44,34.3 				"/>
			</g>
			<g class="st5">
				<g>
					<defs>
						<path id="SVGID_71_" d="M48.5,34.3v3c0,0.2-0.1,0.4-0.4,0.6v-3C48.4,34.7,48.5,34.5,48.5,34.3z"/>
					</defs>
					<clipPath id="SVGID_72_">
						<use xlink:href="#SVGID_71_"  style="overflow:visible;"/>
					</clipPath>
					<g class="st50">
						<path class="st16" d="M48.5,34.3v3c0,0.2-0.1,0.4-0.4,0.6v-3C48.4,34.7,48.5,34.5,48.5,34.3L48.5,34.3z"/>
					</g>
				</g>
			</g>
			<g class="st5">
				<g>
					<defs>
						<path id="SVGID_73_" d="M42.1,36.7v-3c0,0.5,0.3,0.9,0.9,1.2v3C42.4,37.6,42.1,37.1,42.1,36.7z"/>
					</defs>
					<clipPath id="SVGID_74_">
						<use xlink:href="#SVGID_73_"  style="overflow:visible;"/>
					</clipPath>
					<g class="st51">
						<path class="st18" d="M43,34.9v3c-0.6-0.3-0.9-0.8-0.9-1.2v-3C42.1,34.1,42.4,34.6,43,34.9L43,34.9z"/>
					</g>
				</g>
			</g>
			<g>
				<polygon class="st13" points="47.7,33.5 47.7,36.5 45.2,38 45.2,35 				"/>
			</g>
			<g>
				<polygon class="st14" points="43.2,35 43.2,38 43,37.9 43,34.9 				"/>
			</g>
			<g>
				<polygon class="st11" points="48.1,34.9 48.1,37.9 47.8,38 47.9,35 				"/>
			</g>
			<g class="st5">
				<g>
					<defs>
						<path id="SVGID_75_" d="M47.9,35v3c-0.7,0.4-1.8,0.4-2.6,0v-3C46,35.4,47.1,35.4,47.9,35z"/>
					</defs>
					<clipPath id="SVGID_76_">
						<use xlink:href="#SVGID_75_"  style="overflow:visible;"/>
					</clipPath>
					<g class="st52">
						<path class="st16" d="M47.9,35v3c-0.7,0.4-1.8,0.4-2.6,0v-3C46,35.4,47.1,35.4,47.9,35L47.9,35z"/>
					</g>
				</g>
			</g>
			<g>
				<path class="st6" d="M48.1,33.7c0.3,0.2,0.4,0.4,0.4,0.6c0,0.2-0.1,0.4-0.4,0.6L47.9,35c-0.7,0.4-1.8,0.4-2.6,0h-0.1l2.5-1.5
					L48.1,33.7L48.1,33.7z"/>
			</g>
			<g>
				<polygon class="st11" points="43.2,35 43.2,38 42.4,38.4 42.4,35.4 				"/>
			</g>
			<g class="st5">
				<g>
					<defs>
						<path id="SVGID_77_" d="M50,34.3v3c0,0.4-0.3,0.9-0.8,1.2v-3C49.7,35.2,50,34.8,50,34.3z"/>
					</defs>
					<clipPath id="SVGID_78_">
						<use xlink:href="#SVGID_77_"  style="overflow:visible;"/>
					</clipPath>
					<g class="st53">
						<path class="st18" d="M50,34.3v3c0,0.4-0.3,0.9-0.8,1.2v-3C49.7,35.2,50,34.8,50,34.3L50,34.3z"/>
					</g>
				</g>
			</g>
			<g>
				<polygon class="st13" points="49.1,35.5 49.1,38.5 48.9,38.6 48.9,35.6 				"/>
			</g>
			<g>
				<polygon class="st14" points="44.3,35.6 44.3,38.6 44.2,38.6 44.2,35.6 				"/>
			</g>
			<g>
				<polygon class="st14" points="43.4,36 43.4,39 42.4,38.4 42.4,35.4 				"/>
			</g>
			<g>
				<polygon class="st13" points="44.2,35.6 44.2,38.6 43.4,39 43.4,36 				"/>
			</g>
			<g class="st5">
				<g>
					<defs>
						<path id="SVGID_79_" d="M48.9,35.6v3c-1.3,0.7-3.3,0.7-4.6,0v-3C45.6,36.4,47.6,36.4,48.9,35.6z"/>
					</defs>
					<clipPath id="SVGID_80_">
						<use xlink:href="#SVGID_79_"  style="overflow:visible;"/>
					</clipPath>
					<g class="st54">
						<path class="st18" d="M48.9,35.6v3c-1.3,0.7-3.3,0.7-4.6,0v-3C45.6,36.4,47.6,36.4,48.9,35.6L48.9,35.6z"/>
					</g>
				</g>
			</g>
			<g class="st5">
				<g>
					<defs>
						<path id="SVGID_81_" d="M57.8,33c0,1,0,2,0,3c0,1.5-1,3-2.9,4.1c-3.9,2.3-10.3,2.3-14.2,0c-2-1.1-3-2.6-3-4.1c0-1,0-2,0-3
							c0,1.5,1,3,3,4.1c3.9,2.3,10.3,2.3,14.2,0C56.8,35.9,57.8,34.5,57.8,33z"/>
					</defs>
					<clipPath id="SVGID_82_">
						<use xlink:href="#SVGID_81_"  style="overflow:visible;"/>
					</clipPath>
					<g class="st55">
						<path class="st8" d="M57.8,33v3c0,1.5-1,3-2.9,4.1c-3.9,2.3-10.3,2.3-14.2,0c-2-1.1-3-2.6-3-4.1v-3c0,1.5,1,3,3,4.1
							c3.9,2.3,10.3,2.3,14.2,0C56.8,35.9,57.8,34.5,57.8,33L57.8,33z"/>
					</g>
				</g>
			</g>
			<g>
				<path class="st6" d="M54.9,28.8c3.9,2.3,4,6,0,8.2c-3.9,2.3-10.3,2.3-14.2,0s-4-5.9,0-8.2C44.6,26.6,50.9,26.6,54.9,28.8z
					 M49.1,33.1l-0.3-0.2l2.5-1.5l0.2,0.1c0.6,0.4,0.6,0.9,0,1.3l1,0.6c1.2-0.7,1.2-1.8,0-2.5l-0.2-0.1l0.8-0.4l-1-0.6l-0.8,0.4
					c-1.3-0.7-3.3-0.7-4.6,0c-0.6,0.4-0.9,0.8-0.9,1.3s0.3,1,0.9,1.3l0,0l-2.5,1.5l-0.2,0c-0.6-0.4-0.6-0.9,0-1.3l-1-0.6
					c-1.2,0.7-1.2,1.8,0,2.5l0.2,0.1l-0.8,0.4l1,0.6l0.8-0.4h0.1c1.3,0.7,3.3,0.7,4.6,0l0.2-0.1c0.5-0.3,0.8-0.7,0.8-1.2
					C49.9,33.8,49.6,33.4,49.1,33.1L49.1,33.1z"/>
			</g>
			<g>
				<path class="st36" d="M49.1,33.1c0.6,0.3,0.9,0.7,0.9,1.2s-0.3,0.9-0.8,1.2L49,35.6c-1.3,0.7-3.3,0.7-4.6,0h-0.1L43.4,36l-1-0.6
					l0.8-0.4L43,34.9c-1.2-0.7-1.2-1.8,0-2.5l1,0.6c-0.6,0.4-0.6,0.9,0,1.3l0.2,0.1l2.5-1.5l0,0c-0.6-0.3-0.9-0.8-0.9-1.3
					s0.3-1,0.9-1.3c1.3-0.7,3.3-0.7,4.6,0l0.8-0.4l1,0.6l-0.8,0.4l0.2,0.1c1.2,0.7,1.2,1.8,0,2.5l-1-0.6c0.6-0.4,0.6-0.9,0-1.3
					l-0.2-0.1L48.8,33L49.1,33.1z M47.9,35l0.2-0.1c0.3-0.2,0.4-0.4,0.4-0.6c0-0.2-0.1-0.4-0.4-0.6l0,0l-0.3-0.2L45.2,35h0.1
					C46,35.4,47.1,35.4,47.9,35L47.9,35z M47.7,32.3l2.5-1.5c-0.7-0.4-1.8-0.4-2.5,0c-0.3,0.2-0.5,0.5-0.5,0.7
					C47.2,31.9,47.4,32.1,47.7,32.3L47.7,32.3L47.7,32.3z"/>
			</g>
		</g>
	</g>
</g>
</svg>
